<?xml version="1.0" encoding="UTF-8" standalone="no"?>
<svg
   version="1.1"
   width="24"
   height="24"
   viewBox="0 0 24 24"
   id="svg4"
   sodipodi:docname="closed-track.svg"
   inkscape:version="1.1.1 (c3084ef, 2021-09-22)"
   xmlns:inkscape="http://www.inkscape.org/namespaces/inkscape"
   xmlns:sodipodi="http://sodipodi.sourceforge.net/DTD/sodipodi-0.dtd"
   xmlns="http://www.w3.org/2000/svg"
   xmlns:svg="http://www.w3.org/2000/svg">
  <defs
     id="defs8">
    <linearGradient
       id="linearGradient13994"
       inkscape:swatch="solid">
      <stop
         style="stop-color:#ff0000;stop-opacity:1;"
         offset="0"
         id="stop13992" />
    </linearGradient>
  </defs>
  <sodipodi:namedview
     id="namedview6"
     pagecolor="#ffffff"
     bordercolor="#666666"
     borderopacity="1.0"
     inkscape:pageshadow="2"
     inkscape:pageopacity="0.0"
     inkscape:pagecheckerboard="0"
     showgrid="false"
     inkscape:zoom="18.13141"
     inkscape:cx="13.540039"
     inkscape:cy="17.621354"
     inkscape:window-width="1296"
     inkscape:window-height="969"
     inkscape:window-x="0"
     inkscape:window-y="25"
     inkscape:window-maximized="0"
     inkscape:current-layer="layer1"
     showguides="false" />
  <g
     inkscape:groupmode="layer"
     id="layer1"
     inkscape:label="stop"
     style="display:inline">
    <path
       sodipodi:type="star"
       style="fill:none;fill-opacity:1;stroke:#f44336;stroke-opacity:1;stroke-width:0.99977643;stroke-miterlimit:4;stroke-dasharray:none"
       id="path1382"
       inkscape:flatsided="true"
       sodipodi:sides="8"
       sodipodi:cx="24.48134"
       sodipodi:cy="28.29936"
       sodipodi:r1="10.317548"
       sodipodi:r2="5.1587739"
       sodipodi:arg1="1.0532238"
       sodipodi:arg2="1.4459229"
       inkscape:rounded="0"
       inkscape:randomized="0"
       d="m 29.586175,37.265544 -7.835221,0.983529 -6.235798,-4.844878 -0.983528,-7.835221 4.844878,-6.235798 7.835221,-0.983528 6.235798,4.844878 0.983528,7.835221 z"
       transform="matrix(1.038222,0.12086572,-0.12086571,1.038222,-9.9966439,-20.339973)" />
    <path
       d="M 15.905709,10.047145 H 14.603806 V 8.7452422 h 1.301903 v -1.301903 h -1.301903 v -1.301902 h 1.301903 V 4.8395332 H 8.094291 v 1.301904 h 1.301903 v 1.301902 H 8.094291 v 1.301903 H 9.396194 V 10.047145 H 8.094291 v 1.301903 h 1.301903 v 1.301903 H 8.094291 v 1.301904 h 1.301903 v 1.301903 H 8.094291 v 1.301903 h 1.301903 v 1.301903 H 8.094291 v 1.301903 h 7.811418 v -1.301903 h -1.301903 v -1.301903 h 1.301903 v -1.301903 h -1.301903 v -1.301903 h 1.301903 v -1.301904 h -1.301903 v -1.301903 h 1.301903 V 10.047145 M 13.301903,6.1414372 v 1.301902 h -2.603806 v -1.301902 h 2.603806 m 0,2.603805 V 10.047145 H 10.698097 V 8.7452422 h 2.603806 m 0,2.6038058 v 1.301903 h -2.603806 v -1.301903 h 2.603806 m 0,2.603807 v 1.301903 h -2.603806 v -1.301903 h 2.603806 m 0,2.603806 v 1.301903 h -2.603806 v -1.301903 z"
       id="path2-3"
       style="display:inline;fill:#f44336;stroke-width:0.650952;fill-opacity:1" />
    <rect
       style="fill:#f44336;fill-opacity:1;stroke:none;stroke-width:1.28432;stroke-miterlimit:4;stroke-dasharray:none;stroke-opacity:1"
       id="rect15264"
       width="1.152323"
       height="27.113483"
       x="-0.78695852"
       y="3.4177475"
       transform="matrix(0.71583277,-0.69827176,0.71583277,0.69827176,0,0)" />
    <rect
       style="display:inline;fill:#ffffff;fill-opacity:1;stroke:none;stroke-width:1.28432;stroke-miterlimit:4;stroke-dasharray:none;stroke-opacity:1"
       id="rect15264-7"
       width="1.152323"
       height="27.113483"
       x="0.36536449"
       y="3.4177475"
       transform="matrix(0.71583277,-0.69827176,0.71583277,0.69827176,0,0)" />
  </g>
</svg>
